<?xml version="1.0" encoding="iso-8859-1"?>
<!-- Generator: Adobe Illustrator 16.0.0, SVG Export Plug-In . SVG Version: 6.00 Build 0)  -->
<!DOCTYPE svg PUBLIC "-//W3C//DTD SVG 1.1//EN" "http://www.w3.org/Graphics/SVG/1.1/DTD/svg11.dtd">
<svg version="1.1" id="Capa_1" xmlns="http://www.w3.org/2000/svg" xmlns:xlink="http://www.w3.org/1999/xlink" x="0px" y="0px"
	 width="535.5px" height="535.5px" viewBox="0 0 535.5 535.5" style="enable-background:new 0 0 535.5 535.5;" xml:space="preserve"
	>
<g>
	<g>
		<path d="M267.75,143.438h95.625L248.625,9.562v114.75C248.625,135.788,258.188,143.438,267.75,143.438z"/>
		<path d="M114.75,392.062V258.188c0-32.513,24.862-57.375,57.375-57.375h191.25v-38.25H267.75c-21.038,0-38.25-17.212-38.25-38.25
			V9.562H38.25C17.212,9.562,0,26.775,0,47.812v439.875c0,21.037,17.212,38.25,38.25,38.25h286.875
			c21.037,0,38.25-17.213,38.25-38.25v-38.25h-191.25C139.612,449.438,114.75,424.575,114.75,392.062z"/>
		<path d="M497.25,219.938H172.125c-21.038,0-38.25,17.212-38.25,38.25v133.875c0,21.037,17.212,38.25,38.25,38.25H497.25
			c21.037,0,38.25-17.213,38.25-38.25V258.188C535.5,237.15,518.287,219.938,497.25,219.938z M210.375,315.562H229.5
			c21.038,0,38.25,17.213,38.25,38.25s-17.212,38.25-38.25,38.25h-19.125c-21.038,0-38.25-17.213-38.25-38.25l0,0h19.125l0,0
			c0,9.562,7.65,19.125,19.125,19.125H229.5c11.475,0,19.125-7.65,19.125-19.125s-9.562-19.125-19.125-19.125h-19.125
			c-21.038,0-38.25-17.213-38.25-38.25s17.212-38.25,38.25-38.25H229.5c21.038,0,38.25,17.213,38.25,38.25h-19.125
			c0-9.562-7.65-19.125-19.125-19.125h-19.125c-11.475,0-19.125,7.65-19.125,19.125S200.812,315.562,210.375,315.562z
			 M374.85,407.362l-17.212-17.212c-3.825,1.912-9.562,1.912-13.388,1.912h-19.125c-21.037,0-38.25-17.213-38.25-38.25v-57.375
			c0-21.037,17.213-38.25,38.25-38.25h19.125c21.037,0,38.25,17.213,38.25,38.25v57.375c0,9.562-3.825,19.125-9.562,24.862
			l15.3,15.3L374.85,407.362z M497.25,392.062h-95.625V258.188h19.125v114.75h76.5V392.062z"/>
		<path d="M344.25,277.312h-19.125c-11.475,0-19.125,7.65-19.125,19.125v57.375c0,11.475,7.65,19.125,19.125,19.125h15.3
			L319.388,351.9l13.388-13.388l26.774,26.774c1.913-3.824,3.825-7.649,3.825-11.475v-57.375
			C363.375,284.963,355.725,277.312,344.25,277.312z"/>
	</g>
</g>
<g>
</g>
<g>
</g>
<g>
</g>
<g>
</g>
<g>
</g>
<g>
</g>
<g>
</g>
<g>
</g>
<g>
</g>
<g>
</g>
<g>
</g>
<g>
</g>
<g>
</g>
<g>
</g>
<g>
</g>
</svg>
